<svg xmlns="http://www.w3.org/2000/svg" width="906" height="497" viewBox="0 0 906 497">
  <defs>
    
  </defs>
  <rect width="906" height="497" fill="#FFFFFF"></rect>
  <g>
    <text x="242" y="86" text-anchor="middle" font-family="Inter, system-ui, sans-serif" font-weight="500" font-size="32" letter-spacing="0.22em" fill="#1A1A1A" style="text-indent:0.22em">GATE</text>
    <g transform="translate(62, 98)">
      <g fill="none" stroke="#141414" stroke-width="4.5" stroke-linejoin="miter">
        <path d="M 92 60 H 300 V 262"></path>
        <path d="M 278 240 L 300 262 L 322 240"></path>
        <path d="M 268 300 H 60 V 160"></path>
        <path d="M 38 182 L 60 160 L 82 182"></path>
      </g>
      <g fill="#141414" font-family="Inter, system-ui, sans-serif" font-weight="500" font-size="44" text-anchor="middle">
        <text x="60" y="75">1</text>
        <text x="60" y="140">12</text>
        <text x="300" y="314">7</text>
      </g>
    </g>
  </g>
  <g>
    <text x="664" y="86" text-anchor="middle" font-family="Inter, system-ui, sans-serif" font-weight="500" font-size="32" letter-spacing="0.22em" fill="#1A1A1A" style="text-indent:0.22em">POSITION</text>
    <g transform="translate(484, 98)">
      <g fill="none" stroke="#141414" stroke-width="4.5" stroke-linejoin="miter">
        <path d="M 92 60 H 300 L 240 120"></path>
        <path d="M 120 240 L 60 300 H 266"></path>
        <path d="M 244 278 L 266 300 L 244 322"></path>
      </g>
      <g fill="#141414" font-family="Inter, system-ui, sans-serif" font-weight="500" font-size="44" text-anchor="middle">
        <text x="60" y="75">A</text>
        <text x="180" y="196">G</text>
        <text x="300" y="314">M</text>
      </g>
    </g>
  </g>
</svg>
