<svg xmlns="http://www.w3.org/2000/svg" width="906" height="497" viewBox="0 497 906 497">
  <defs>
    
  </defs>
  <rect x="0" y="497" width="906" height="497" fill="#FFFFFF"></rect>
  <g>
    <text x="242" y="562" text-anchor="middle" font-family="Inter, system-ui, sans-serif" font-weight="500" font-size="32" letter-spacing="0.22em" fill="#1A1A1A" style="text-indent:0.22em">GATE</text>
    <g transform="translate(62, 574)">
      <g fill="none" stroke="#141414" stroke-width="4.5" stroke-linejoin="miter">
        <path d="M 92 60 H 300 V 190"></path>
        <path d="M 278 168 L 300 190 L 322 168"></path>
        <path d="M 268 300 H 60 V 104"></path>
        <path d="M 38 126 L 60 104 L 82 126"></path>
      </g>
      <g fill="#141414" font-family="Inter, system-ui, sans-serif" font-weight="500" font-size="44" text-anchor="middle">
        <text x="60" y="75">7</text>
        <text x="300" y="240">12</text>
        <text x="300" y="314">1</text>
      </g>
    </g>
  </g>
  <g>
    <text x="664" y="562" text-anchor="middle" font-family="Inter, system-ui, sans-serif" font-weight="500" font-size="32" letter-spacing="0.22em" fill="#1A1A1A" style="text-indent:0.22em">POSITION</text>
    <g transform="translate(484, 574)">
      <g fill="none" stroke="#141414" stroke-width="4.5" stroke-linejoin="miter">
        <path d="M 240 120 L 300 60 H 88"></path>
        <path d="M 110 38 L 88 60 L 110 82"></path>
        <path d="M 120 240 L 60 300 H 252"></path>
      </g>
      <g fill="#141414" font-family="Inter, system-ui, sans-serif" font-weight="500" font-size="44" text-anchor="middle">
        <text x="60" y="75">M</text>
        <text x="180" y="196">G</text>
        <text x="300" y="314">A</text>
      </g>
    </g>
  </g>
</svg>
